# Blender v3.0.0 OBJ File: 'River village.blend'
# www.blender.org
mtllib small River village.mtl
o Big_river_hub_Plane.001
v 19.488674 0.000000 0.079670
v 20.746279 0.000000 0.366319
v 20.296236 0.000000 -12.312416
v 21.334032 0.000000 -11.860630
v 20.102669 0.000000 -10.713974
v 21.009081 0.000000 -10.404371
v 21.047779 0.000000 -9.641152
v 20.820686 0.000000 -8.877934
v 20.825779 0.000000 -8.114716
v 20.987865 0.000000 -7.351498
v 21.289127 0.000000 -6.588279
v 21.419304 0.000000 -5.825060
v 21.463785 0.000000 -5.061842
v 21.784336 0.000000 -4.298624
v 21.880276 0.000000 -3.535405
v 21.766409 0.000000 -2.772187
v 21.536209 0.000000 -2.008969
v 21.266781 0.000000 -1.581678
v 20.296236 0.000000 -1.383373
v 19.781918 0.000000 -1.475096
v 21.861786 0.000000 0.070327
v 22.498871 0.000000 -0.482532
v 22.892403 0.000000 -1.245750
v 23.176937 0.000000 -2.008968
v 23.440969 0.000000 -2.772187
v 23.396511 0.000000 -3.535405
v 23.102724 0.000000 -4.818849
v 22.928261 0.000000 -5.340069
v 22.903059 0.000000 -5.825060
v 22.858624 0.000000 -6.588279
v 22.594450 0.000000 -7.351497
v 22.313805 0.000000 -8.114716
v 22.348835 0.000000 -8.877934
v 22.610029 0.000000 -9.641151
v 22.484444 0.000000 -10.404370
v 22.097467 0.000000 -11.167589
v 3.812508 0.000000 -9.938713
v 19.246281 0.000000 -11.027975
v 2.323793 0.000000 -10.880747
v 19.656879 0.000000 -12.517864
v 4.501467 0.000000 -10.341688
v 5.690607 0.000000 -10.432312
v 6.848074 0.000000 -10.163957
v 8.206146 0.000000 -10.022300
v 9.733151 0.000000 -10.017900
v 10.932851 0.000000 -10.045176
v 12.125510 0.000000 -9.804976
v 13.476546 0.000000 -9.923756
v 14.440444 0.000000 -10.288897
v 15.474730 0.000000 -10.495662
v 17.010534 0.000000 -10.464868
v 17.719275 0.000000 -10.671633
v 18.542397 0.000000 -10.992781
v 18.803419 0.000000 -12.517864
v 17.792595 0.000000 -12.318222
v 16.896152 0.000000 -11.977802
v 15.946919 0.000000 -11.936533
v 14.742527 0.000000 -11.816076
v 13.247783 0.000000 -11.255692
v 12.395333 0.000000 -11.478380
v 11.243733 0.000000 -11.551492
v 9.201720 0.000000 -11.508463
v 7.085798 0.000000 -11.866647
v 5.603374 0.000000 -11.939758
v 3.962574 0.000000 -11.854497
v 3.229784 0.000000 -11.410254
v -2.386534 0.000000 -9.563062
v 3.271276 0.000000 -9.593270
v -2.511181 0.000000 -11.134990
v 2.035963 0.000000 -10.723217
v -1.232491 0.000000 -9.464083
v -0.084860 0.000001 -9.117117
v 1.177153 -0.000000 -8.853045
v 2.403276 -0.000000 -9.102092
v 1.409151 0.000000 -10.607906
v 0.595041 0.000000 -10.668264
v -0.468361 0.000000 -10.853268
v -1.480440 0.000000 -11.008944
v 1.028137 0.000000 3.300309
v 18.970909 0.000000 0.060975
v 0.658598 0.000000 1.495000
v 18.934248 0.000000 -1.438730
v 1.443571 0.000000 2.856862
v 2.059612 0.000000 2.540113
v 2.633417 0.000000 2.191691
v 3.291691 0.000000 1.737686
v 4.192806 0.000000 1.209773
v 5.136152 0.000000 0.629068
v 5.889450 0.000000 0.713534
v 6.737773 0.000000 1.135865
v 7.638885 0.000000 1.505404
v 8.539997 0.000000 2.012201
v 9.377761 0.000000 2.255041
v 10.405573 0.000000 2.635138
v 11.354198 0.000000 3.203524
v 12.214838 0.000000 3.405891
v 13.119471 0.000000 3.247517
v 14.059298 0.000000 2.596425
v 14.647182 0.000000 2.015719
v 15.713120 0.000000 1.028816
v 16.333267 0.000000 0.632881
v 17.583975 0.000000 0.588888
v 18.255445 0.000000 0.317600
v 18.240782 0.000000 -1.306752
v 17.408003 0.000000 -0.962142
v 16.589890 0.000000 -0.932814
v 15.669127 0.000000 -0.705518
v 15.034317 0.000000 -0.384370
v 14.024101 0.000000 0.645060
v 13.093074 0.000000 1.480923
v 12.505189 0.000000 1.674490
v 11.714938 0.000000 1.445728
v 10.775111 0.000000 1.062112
v 9.831765 0.000000 0.808713
v 8.803952 0.000000 0.470849
v 7.850046 0.000000 0.143543
v 6.906699 0.000000 -0.458278
v 6.111170 0.000000 -0.848934
v 5.199499 0.000000 -0.933400
v 4.330061 0.000000 -0.796143
v 3.492298 0.000000 -0.321021
v 2.781233 0.000000 0.238567
v 2.101843 0.000000 0.703130
v 1.211288 0.000000 1.136019
v -8.593090 0.000000 8.695816
v -9.125362 0.000000 10.240105
v -0.139202 0.000000 1.962636
v 0.878744 0.000000 3.692811
v -0.555891 0.000000 2.918399
v -0.757193 0.000000 4.849746
v -0.743103 0.000000 6.337646
v -1.223143 0.000000 7.572147
v -1.994589 0.000000 8.565918
v -3.323511 0.000000 9.306293
v -4.018936 0.000000 9.793268
v -4.993103 0.000000 10.102867
v -6.119308 0.000000 10.019695
v -7.093472 0.000000 9.531088
v -7.900000 0.000000 10.716455
v -6.469719 0.000000 11.623171
v -4.633995 0.000000 11.655661
v -3.279732 0.000000 10.864609
v -1.786100 0.000000 10.288944
v -0.545866 0.000000 9.510559
v 0.377619 0.000000 8.225376
v 0.756298 0.000000 7.117575
v 0.792891 0.000000 5.959094
v 0.702784 0.000000 4.838624
v -20.605106 0.000000 11.837891
v -10.400444 0.000000 9.797979
v -19.920677 0.000000 10.271978
v -9.814472 0.000000 7.985935
v -19.568413 0.000000 12.256794
v -18.704582 0.000000 12.179428
v -17.449707 0.000000 11.857656
v -16.274258 0.000000 11.627537
v -15.324886 0.000000 11.360756
v -14.198322 0.000000 10.831240
v -13.151711 0.000000 10.808384
v -12.216698 0.000000 10.412579
v -11.280296 0.000000 9.789183
v -10.993477 0.000000 7.906746
v -12.275486 0.000000 8.645227
v -13.223145 0.000000 8.961376
v -14.179607 0.000000 9.330318
v -15.144867 0.000000 9.892826
v -16.481697 0.010954 10.564230
v -17.603294 0.000000 10.683500
v -18.626247 0.002216 10.639069
v -19.352016 -0.011117 10.470390
v -21.291630 0.000000 11.599760
v -20.303467 0.000000 10.209589
v -22.630966 0.000000 3.588984
v -20.759277 0.000000 3.570653
v -22.924252 0.000000 4.426234
v -22.942581 0.000000 5.605649
v -22.857040 0.000000 6.522331
v -22.567421 0.000000 7.287481
v -22.153893 0.000000 8.039921
v -22.347458 0.000000 8.818758
v -22.699402 0.000000 9.641588
v -22.620213 0.000000 10.130074
v -22.206680 0.000000 10.970497
v -20.699398 0.000000 9.958666
v -20.866570 0.000000 9.461380
v -20.760986 0.000000 8.805725
v -20.822582 0.000000 7.886110
v -20.972153 0.000000 7.283244
v -21.104130 0.000000 6.741969
v -21.327518 0.000000 6.051851
v -21.199203 0.000000 5.006858
v -20.948689 0.000000 4.230711
v -22.133423 0.000000 3.050311
v -19.981384 0.000000 3.379729
v -20.752403 0.000000 -2.163416
v -19.525265 0.000000 -3.075650
v -20.689053 0.000000 -1.539413
v -20.410316 0.000000 -1.105460
v -20.118908 0.000000 -0.443447
v -20.359634 0.000000 0.497303
v -21.107162 0.000000 1.640773
v -19.284534 0.000000 2.388298
v -19.271866 0.000000 1.384198
v -18.613029 0.000000 0.139369
v -18.448322 0.000000 -1.105460
v -18.739731 0.000000 -1.970191
v -22.327690 0.000000 3.018497
v -21.480305 0.000000 1.654722
v -21.692432 0.000000 -2.898838
v -20.820412 0.000000 -2.165038
v -22.318893 0.000000 -1.679691
v -22.723625 0.000000 -0.939186
v -23.119560 0.000000 -0.154689
v -23.216343 0.000000 0.603414
v -22.978783 0.000000 1.528689
v -22.767620 0.000000 2.198805
v -21.832245 0.000000 1.556511
v -22.166592 0.000000 0.991976
v -22.122597 0.000000 0.497831
v -21.858643 0.000000 -0.251472
v -21.418713 0.000000 -0.816007
v -21.005180 0.000000 -1.732482
v -22.162514 0.000000 -3.405430
v -19.954597 0.000000 -3.575542
v -19.736328 0.000000 -12.348740
v -18.774967 0.000000 -10.119041
v -21.054272 0.000000 -11.686648
v -21.868683 0.000000 -11.460045
v -22.587830 0.000000 -10.974869
v -23.007580 0.000000 -9.945334
v -23.440933 0.000000 -8.589184
v -23.384369 0.000000 -7.246641
v -23.123665 0.000000 -6.312369
v -22.862965 0.000000 -5.568623
v -22.888054 0.000000 -4.879313
v -22.668179 0.000000 -4.094740
v -20.479160 0.000000 -4.167734
v -20.976509 0.000000 -4.855188
v -21.147236 0.000000 -5.474597
v -21.209095 0.000000 -6.257314
v -21.393436 0.000000 -6.890333
v -21.632214 0.000000 -7.686659
v -21.571594 0.000000 -8.551030
v -21.211571 0.000000 -9.388184
v -20.511326 0.000000 -9.885111
v -19.879131 0.000000 -9.878507
l 1 2
l 36 4
l 4 3
l 5 6
l 6 7
l 7 8
l 8 9
l 9 10
l 10 11
l 11 12
l 12 13
l 13 14
l 14 15
l 15 16
l 16 17
l 17 18
l 18 19
l 19 20
l 2 21
l 21 22
l 22 23
l 23 24
l 24 25
l 25 26
l 26 27
l 27 28
l 28 29
l 29 30
l 30 31
l 31 32
l 32 33
l 33 34
l 34 35
l 35 36
l 53 38
l 66 39
l 3 40
l 5 38
l 37 41
l 41 42
l 42 43
l 43 44
l 44 45
l 45 46
l 46 47
l 47 48
l 48 49
l 49 50
l 50 51
l 51 52
l 52 53
l 40 54
l 54 55
l 55 56
l 56 57
l 57 58
l 58 59
l 59 60
l 60 61
l 61 62
l 62 63
l 63 64
l 64 65
l 65 66
l 69 67
l 74 68
l 78 69
l 39 70
l 37 68
l 67 71
l 71 72
l 72 73
l 73 74
l 70 75
l 75 76
l 76 77
l 77 78
l 103 80
l 124 81
l 79 83
l 83 84
l 84 85
l 85 86
l 86 87
l 87 88
l 88 89
l 89 90
l 90 91
l 91 92
l 92 93
l 93 94
l 94 95
l 95 96
l 96 97
l 97 98
l 98 99
l 99 100
l 100 101
l 101 102
l 102 103
l 82 104
l 104 105
l 105 106
l 106 107
l 107 108
l 108 109
l 109 110
l 110 111
l 111 112
l 112 113
l 113 114
l 114 115
l 115 116
l 116 117
l 117 118
l 118 119
l 119 120
l 120 121
l 121 122
l 122 123
l 123 124
l 20 82
l 1 80
l 138 125
l 148 128
l 127 129
l 129 130
l 130 131
l 131 132
l 132 133
l 133 134
l 134 135
l 135 136
l 136 137
l 137 138
l 126 139
l 139 140
l 140 141
l 141 142
l 142 143
l 143 144
l 144 145
l 145 146
l 146 147
l 147 148
l 81 127
l 79 128
l 161 150
l 170 151
l 149 153
l 153 154
l 154 155
l 155 156
l 156 157
l 157 158
l 158 159
l 159 160
l 160 161
l 152 162
l 162 163
l 163 164
l 164 165
l 165 166
l 166 167
l 167 168
l 168 169
l 169 170
l 46 61
l 45 62
l 44 63
l 43 64
l 42 65
l 41 66
l 37 39
l 68 70
l 125 152
l 126 150
l 183 171
l 74 75
l 192 174
l 173 175
l 175 176
l 176 177
l 177 178
l 178 179
l 179 180
l 180 181
l 181 182
l 182 183
l 172 184
l 184 185
l 185 186
l 186 187
l 187 188
l 188 189
l 189 190
l 190 191
l 191 192
l 73 76
l 72 77
l 71 78
l 151 172
l 149 171
l 206 196
l 195 197
l 197 198
l 198 199
l 199 200
l 200 201
l 194 202
l 202 203
l 203 204
l 204 205
l 205 206
l 174 194
l 173 193
l 216 207
l 222 210
l 209 211
l 211 212
l 212 213
l 213 214
l 214 215
l 215 216
l 208 217
l 217 218
l 218 219
l 219 220
l 220 221
l 221 222
l 201 208
l 193 207
l 195 210
l 236 223
l 246 226
l 226 225
l 196 224
l 209 223
l 225 227
l 227 228
l 228 229
l 229 230
l 230 231
l 231 232
l 232 233
l 233 234
l 234 235
l 235 236
l 224 237
l 237 238
l 238 239
l 239 240
l 240 241
l 241 242
l 242 243
l 243 244
l 244 245
l 245 246
l 47 60
l 48 59
l 49 58
l 50 57
l 51 56
l 52 55
l 53 54
l 38 40
l 3 5
l 4 6
l 7 36
l 8 35
l 9 34
l 10 33
l 11 32
l 12 31
l 13 30
l 14 29
l 15 28
l 16 27
l 17 26
l 18 25
l 19 24
l 19 23
l 20 22
l 21 82
l 2 104
l 1 105
l 80 106
l 103 107
l 102 108
l 101 109
l 100 110
l 99 111
l 98 112
l 97 113
l 96 114
l 95 115
l 94 116
l 93 117
l 92 118
l 91 119
l 90 120
l 89 121
l 88 122
l 87 123
l 86 124
l 81 85
l 84 127
l 83 129
l 79 130
o Plane
v 3.188312 0.000337 -2.966424
v -4.962117 0.000337 -0.465746
v 3.800158 0.000337 -2.961326
v -4.977384 0.000337 0.034806
v 2.656988 0.000337 -1.734824
v 2.838373 0.000337 -2.025783
v 2.937721 0.000337 -2.262052
v 3.003160 0.000337 -2.571607
v 2.442787 0.000337 -1.472303
v 2.194678 0.000337 -1.249161
v 1.924035 0.000337 -1.072616
v 1.563698 0.000337 -0.898259
v 1.169890 0.000337 -0.723683
v 0.761206 0.000337 -0.609487
v 0.373523 0.000337 -0.571422
v 0.040970 0.000337 -0.532044
v -0.287646 0.000337 -0.387658
v -0.583446 0.000337 -0.147452
v -0.884606 0.000337 0.135490
v -1.198763 0.000337 0.424342
v -1.540625 0.000337 0.636416
v -1.870175 0.000337 0.787654
v -2.200864 0.000337 0.888732
v -2.471240 0.000337 0.883314
v -2.760201 0.000337 0.755472
v -3.074001 0.000337 0.553113
v -3.377166 0.000337 0.277831
v -3.671217 0.000337 -0.023885
v -4.000816 0.000337 -0.284582
v -4.323124 0.000337 -0.484644
v -4.673470 0.000337 -0.567921
v -4.731608 0.000337 0.234230
v -4.464350 0.000337 0.357688
v -4.195884 0.000337 0.553885
v -3.947258 0.000337 0.802277
v -3.685566 0.000337 1.079533
v -3.437548 0.000337 1.316531
v -3.071791 0.000337 1.568720
v -2.598803 0.000337 1.776726
v -2.151767 0.000337 1.795463
v -1.717645 0.000337 1.641643
v -1.364928 0.000337 1.489721
v -1.086747 0.000337 1.340213
v -0.832846 0.000337 1.140564
v -0.576855 0.000337 0.905371
v -0.249580 0.000337 0.610929
v 0.109226 0.000337 0.393037
v 0.517910 0.000337 0.242088
v 0.988286 0.000337 0.198772
v 1.429786 0.000337 0.072762
v 1.887036 0.000337 -0.116690
v 2.308628 0.000337 -0.322768
v 2.756909 0.000337 -0.613509
v 3.079399 0.000337 -0.907750
v 3.393138 0.000337 -1.286217
v 3.651092 0.000337 -1.660308
v 3.822634 0.000337 -2.066121
v 3.908855 0.000337 -2.558346
v -4.839214 0.000337 -0.565412
v 3.499031 0.000337 -3.024523
v 3.914985 0.000337 -2.790698
v -5.009189 0.000337 -0.221635
v 2.755474 0.000337 -1.883585
v 2.896251 0.000337 -2.146379
v 2.973312 0.000337 -2.396730
v 3.044156 0.000337 -2.787317
v 2.553579 0.000337 -1.597821
v 2.321194 0.000337 -1.354990
v 2.066986 0.000337 -1.157361
v 1.752973 0.000337 -0.986997
v 1.368927 0.000337 -0.807526
v 0.966040 0.000337 -0.656248
v 0.560966 0.000337 -0.584055
v 0.203801 0.000337 -0.559608
v -0.125307 0.000337 -0.474617
v -0.438007 0.000337 -0.275922
v -0.732509 0.000337 -0.009701
v -1.038409 0.000337 0.284922
v -1.369051 0.000337 0.540650
v -1.705476 0.000337 0.717552
v -2.040048 0.000337 0.847479
v -2.340049 0.000337 0.902108
v -2.610849 0.000337 0.831613
v -2.916303 0.000337 0.663180
v -3.228318 0.000337 0.422992
v -3.521457 0.000337 0.125264
v -3.834307 0.000337 -0.160386
v -4.160945 0.000337 -0.396413
v -4.496329 0.000337 -0.539463
v -4.870908 0.000337 0.172043
v -4.596313 0.000337 0.288945
v -4.328773 0.000337 0.447323
v -4.071628 0.000337 0.672099
v -3.814988 0.000337 0.942899
v -3.566970 0.000337 1.200311
v -3.273470 0.000337 1.440916
v -2.839047 0.000337 1.688153
v -2.371962 0.000337 1.813630
v -1.929674 0.000337 1.728665
v -1.529370 0.000337 1.561694
v -1.220057 0.000337 1.419189
v -0.957778 0.000337 1.245385
v -0.710386 0.000337 1.030890
v -0.420611 0.000337 0.757008
v -0.073623 0.000337 0.492138
v 0.304216 0.000337 0.304272
v 0.752114 0.000337 0.217969
v 1.210021 0.000337 0.149549
v 1.660380 0.000337 -0.019831
v 2.096437 0.000337 -0.212017
v 2.539742 0.000337 -0.463134
v 2.928819 0.000337 -0.755297
v 3.237089 0.000337 -1.090421
v 3.532370 0.000337 -1.474904
v 3.748348 0.000337 -1.852960
v 3.873948 0.000337 -2.307311
v -4.702539 0.000337 -0.166845
v -4.393737 0.000337 -0.063478
v -4.098350 0.000337 0.134652
v -3.809237 0.000337 0.389196
v -3.531366 0.000337 0.678682
v -3.255774 0.000337 0.934822
v -2.915996 0.000337 1.162096
v -2.535021 0.000337 1.330020
v -2.176315 0.000337 1.342098
v -1.793910 0.000337 1.214648
v -1.452776 0.000337 1.063069
v -1.142755 0.000337 0.882278
v -0.858726 0.000337 0.638027
v -0.580151 0.000337 0.378960
v -0.268613 0.000337 0.111636
v 0.075098 0.000337 -0.069503
v 0.445717 0.000337 -0.164667
v 0.874746 0.000337 -0.205358
v 1.299838 0.000337 -0.325461
v 1.725367 0.000337 -0.507474
v 2.116331 0.000337 -0.697692
v 2.475793 0.000337 -0.931335
v 2.761093 0.000337 -1.190027
v 3.025063 0.000337 -1.510520
v 3.244733 0.000337 -1.843046
v 3.380177 0.000337 -2.164086
v 3.456008 0.000337 -2.564976
v 3.480115 0.000337 -2.795889
v -4.859536 0.000337 -0.197384
v -4.546321 0.000337 -0.125259
v -4.244859 0.000337 0.025455
v -3.952967 0.000337 0.255856
v -3.668222 0.000337 0.534082
v -3.397644 0.000337 0.811651
v -3.094887 0.000337 1.052048
v -2.724948 0.000337 1.259883
v -2.356005 0.000337 1.357869
v -1.984861 0.000337 1.288072
v -1.617423 0.000337 1.139623
v -1.294554 0.000337 0.979920
v -0.998093 0.000337 0.765154
v -0.721447 0.000337 0.510595
v -0.429309 0.000337 0.240543
v -0.099465 0.000337 0.008761
v 0.254008 0.000337 -0.127668
v 0.656540 0.000337 -0.183043
v 1.088030 0.000337 -0.253349
v 1.514653 0.000337 -0.413678
v 1.924705 0.000337 -0.599507
v 2.303364 0.000337 -0.810248
v 2.625006 0.000337 -1.055143
v 2.895334 0.000337 -1.344121
v 3.143922 0.000337 -1.679244
v 3.322299 0.000337 -1.999669
v 3.423630 0.000337 -2.352021
vt 0.964286 0.000000
vt 0.982143 0.000000
vt 0.982143 0.500000
vt 0.964286 0.500000
vt 1.000000 0.000000
vt 1.000000 0.500000
vt 1.000000 1.000000
vt 0.982143 1.000000
vt 0.964286 1.000000
vt 0.000000 0.000000
vt 0.017857 0.000000
vt 0.017857 0.500000
vt 0.000000 0.500000
vt 0.035714 0.000000
vt 0.035714 0.500000
vt 0.035714 1.000000
vt 0.017857 1.000000
vt 0.000000 1.000000
vt 0.053571 0.000000
vt 0.053571 0.500000
vt 0.071429 0.000000
vt 0.071429 0.500000
vt 0.071429 1.000000
vt 0.053571 1.000000
vt 0.089286 0.000000
vt 0.089286 0.500000
vt 0.107143 0.000000
vt 0.107143 0.500000
vt 0.107143 1.000000
vt 0.089286 1.000000
vt 0.125000 0.000000
vt 0.125000 0.500000
vt 0.142857 0.000000
vt 0.142857 0.500000
vt 0.142857 1.000000
vt 0.125000 1.000000
vt 0.160714 0.000000
vt 0.160714 0.500000
vt 0.178571 0.000000
vt 0.178571 0.500000
vt 0.178571 1.000000
vt 0.160714 1.000000
vt 0.196429 0.000000
vt 0.196429 0.500000
vt 0.214286 0.000000
vt 0.214286 0.500000
vt 0.214286 1.000000
vt 0.196429 1.000000
vt 0.232143 0.000000
vt 0.232143 0.500000
vt 0.250000 0.000000
vt 0.250000 0.500000
vt 0.250000 1.000000
vt 0.232143 1.000000
vt 0.267857 0.000000
vt 0.267857 0.500000
vt 0.285714 0.000000
vt 0.285714 0.500000
vt 0.285714 1.000000
vt 0.267857 1.000000
vt 0.303571 0.000000
vt 0.303571 0.500000
vt 0.321429 0.000000
vt 0.321429 0.500000
vt 0.321429 1.000000
vt 0.303571 1.000000
vt 0.339286 0.000000
vt 0.339286 0.500000
vt 0.357143 0.000000
vt 0.357143 0.500000
vt 0.357143 1.000000
vt 0.339286 1.000000
vt 0.375000 0.000000
vt 0.375000 0.500000
vt 0.392857 0.000000
vt 0.392857 0.500000
vt 0.392857 1.000000
vt 0.375000 1.000000
vt 0.410714 0.000000
vt 0.410714 0.500000
vt 0.428571 0.000000
vt 0.428571 0.500000
vt 0.428571 1.000000
vt 0.410714 1.000000
vt 0.446429 0.000000
vt 0.446429 0.500000
vt 0.464286 0.000000
vt 0.464286 0.500000
vt 0.464286 1.000000
vt 0.446429 1.000000
vt 0.482143 0.000000
vt 0.482143 0.500000
vt 0.500000 0.000000
vt 0.500000 0.500000
vt 0.500000 1.000000
vt 0.482143 1.000000
vt 0.517857 0.000000
vt 0.517857 0.500000
vt 0.535714 0.000000
vt 0.535714 0.500000
vt 0.535714 1.000000
vt 0.517857 1.000000
vt 0.553571 0.000000
vt 0.553571 0.500000
vt 0.571429 0.000000
vt 0.571429 0.500000
vt 0.571429 1.000000
vt 0.553571 1.000000
vt 0.589286 0.000000
vt 0.589286 0.500000
vt 0.607143 0.000000
vt 0.607143 0.500000
vt 0.607143 1.000000
vt 0.589286 1.000000
vt 0.625000 0.000000
vt 0.625000 0.500000
vt 0.642857 0.000000
vt 0.642857 0.500000
vt 0.642857 1.000000
vt 0.625000 1.000000
vt 0.660714 0.000000
vt 0.660714 0.500000
vt 0.678571 0.000000
vt 0.678571 0.500000
vt 0.678571 1.000000
vt 0.660714 1.000000
vt 0.696429 0.000000
vt 0.696428 0.500000
vt 0.714286 0.000000
vt 0.714286 0.500000
vt 0.714286 1.000000
vt 0.696429 1.000000
vt 0.732143 0.000000
vt 0.732143 0.500000
vt 0.750000 0.000000
vt 0.750000 0.500000
vt 0.750000 1.000000
vt 0.732143 1.000000
vt 0.767857 0.000000
vt 0.767857 0.500000
vt 0.785714 0.000000
vt 0.785714 0.500000
vt 0.785714 1.000000
vt 0.767857 1.000000
vt 0.803571 0.000000
vt 0.803571 0.500000
vt 0.821429 0.000000
vt 0.821429 0.500000
vt 0.821428 1.000000
vt 0.803571 1.000000
vt 0.839286 0.000000
vt 0.839286 0.500000
vt 0.857143 0.000000
vt 0.857143 0.500000
vt 0.857143 1.000000
vt 0.839286 1.000000
vt 0.875000 0.000000
vt 0.875000 0.500000
vt 0.892857 0.000000
vt 0.892857 0.500000
vt 0.892857 1.000000
vt 0.875000 1.000000
vt 0.910714 0.000000
vt 0.910714 0.500000
vt 0.928571 0.000000
vt 0.928572 0.500000
vt 0.928571 1.000000
vt 0.910714 1.000000
vt 0.946429 0.000000
vt 0.946429 0.500000
vt 0.946429 1.000000
vn -0.0000 1.0000 -0.0000
usemtl None
s off
f 304/1/1 307/2/1 390/3/1 389/4/1
f 307/2/1 249/5/1 306/6/1 390/3/1
f 390/3/1 306/6/1 247/7/1 312/8/1
f 389/4/1 390/3/1 312/8/1 254/9/1
f 250/10/1 336/11/1 391/12/1 308/13/1
f 336/11/1 278/14/1 363/15/1 391/12/1
f 391/12/1 363/15/1 277/16/1 305/17/1
f 308/13/1 391/12/1 305/17/1 248/18/1
f 278/14/1 337/19/1 392/20/1 363/15/1
f 337/19/1 279/21/1 364/22/1 392/20/1
f 392/20/1 364/22/1 276/23/1 335/24/1
f 363/15/1 392/20/1 335/24/1 277/16/1
f 279/21/1 338/25/1 393/26/1 364/22/1
f 338/25/1 280/27/1 365/28/1 393/26/1
f 393/26/1 365/28/1 275/29/1 334/30/1
f 364/22/1 393/26/1 334/30/1 276/23/1
f 280/27/1 339/31/1 394/32/1 365/28/1
f 339/31/1 281/33/1 366/34/1 394/32/1
f 394/32/1 366/34/1 274/35/1 333/36/1
f 365/28/1 394/32/1 333/36/1 275/29/1
f 281/33/1 340/37/1 395/38/1 366/34/1
f 340/37/1 282/39/1 367/40/1 395/38/1
f 395/38/1 367/40/1 273/41/1 332/42/1
f 366/34/1 395/38/1 332/42/1 274/35/1
f 282/39/1 341/43/1 396/44/1 367/40/1
f 341/43/1 283/45/1 368/46/1 396/44/1
f 396/44/1 368/46/1 272/47/1 331/48/1
f 367/40/1 396/44/1 331/48/1 273/41/1
f 283/45/1 342/49/1 397/50/1 368/46/1
f 342/49/1 284/51/1 369/52/1 397/50/1
f 397/50/1 369/52/1 271/53/1 330/54/1
f 368/46/1 397/50/1 330/54/1 272/47/1
f 284/51/1 343/55/1 398/56/1 369/52/1
f 343/55/1 285/57/1 370/58/1 398/56/1
f 398/56/1 370/58/1 270/59/1 329/60/1
f 369/52/1 398/56/1 329/60/1 271/53/1
f 285/57/1 344/61/1 399/62/1 370/58/1
f 344/61/1 286/63/1 371/64/1 399/62/1
f 399/62/1 371/64/1 269/65/1 328/66/1
f 370/58/1 399/62/1 328/66/1 270/59/1
f 286/63/1 345/67/1 400/68/1 371/64/1
f 345/67/1 287/69/1 372/70/1 400/68/1
f 400/68/1 372/70/1 268/71/1 327/72/1
f 371/64/1 400/68/1 327/72/1 269/65/1
f 287/69/1 346/73/1 401/74/1 372/70/1
f 346/73/1 288/75/1 373/76/1 401/74/1
f 401/74/1 373/76/1 267/77/1 326/78/1
f 372/70/1 401/74/1 326/78/1 268/71/1
f 288/75/1 347/79/1 402/80/1 373/76/1
f 347/79/1 289/81/1 374/82/1 402/80/1
f 402/80/1 374/82/1 266/83/1 325/84/1
f 373/76/1 402/80/1 325/84/1 267/77/1
f 289/81/1 348/85/1 403/86/1 374/82/1
f 348/85/1 290/87/1 375/88/1 403/86/1
f 403/86/1 375/88/1 265/89/1 324/90/1
f 374/82/1 403/86/1 324/90/1 266/83/1
f 290/87/1 349/91/1 404/92/1 375/88/1
f 349/91/1 291/93/1 376/94/1 404/92/1
f 404/92/1 376/94/1 264/95/1 323/96/1
f 375/88/1 404/92/1 323/96/1 265/89/1
f 291/93/1 350/97/1 405/98/1 376/94/1
f 350/97/1 292/99/1 377/100/1 405/98/1
f 405/98/1 377/100/1 263/101/1 322/102/1
f 376/94/1 405/98/1 322/102/1 264/95/1
f 292/99/1 351/103/1 406/104/1 377/100/1
f 351/103/1 293/105/1 378/106/1 406/104/1
f 406/104/1 378/106/1 262/107/1 321/108/1
f 377/100/1 406/104/1 321/108/1 263/101/1
f 293/105/1 352/109/1 407/110/1 378/106/1
f 352/109/1 294/111/1 379/112/1 407/110/1
f 407/110/1 379/112/1 261/113/1 320/114/1
f 378/106/1 407/110/1 320/114/1 262/107/1
f 294/111/1 353/115/1 408/116/1 379/112/1
f 353/115/1 295/117/1 380/118/1 408/116/1
f 408/116/1 380/118/1 260/119/1 319/120/1
f 379/112/1 408/116/1 319/120/1 261/113/1
f 295/117/1 354/121/1 409/122/1 380/118/1
f 354/121/1 296/123/1 381/124/1 409/122/1
f 409/122/1 381/124/1 259/125/1 318/126/1
f 380/118/1 409/122/1 318/126/1 260/119/1
f 296/123/1 355/127/1 410/128/1 381/124/1
f 355/127/1 297/129/1 382/130/1 410/128/1
f 410/128/1 382/130/1 258/131/1 317/132/1
f 381/124/1 410/128/1 317/132/1 259/125/1
f 297/129/1 356/133/1 411/134/1 382/130/1
f 356/133/1 298/135/1 383/136/1 411/134/1
f 411/134/1 383/136/1 257/137/1 316/138/1
f 382/130/1 411/134/1 316/138/1 258/131/1
f 298/135/1 357/139/1 412/140/1 383/136/1
f 357/139/1 299/141/1 384/142/1 412/140/1
f 412/140/1 384/142/1 256/143/1 315/144/1
f 383/136/1 412/140/1 315/144/1 257/137/1
f 299/141/1 358/145/1 413/146/1 384/142/1
f 358/145/1 300/147/1 385/148/1 413/146/1
f 413/146/1 385/148/1 255/149/1 314/150/1
f 384/142/1 413/146/1 314/150/1 256/143/1
f 300/147/1 359/151/1 414/152/1 385/148/1
f 359/151/1 301/153/1 386/154/1 414/152/1
f 414/152/1 386/154/1 251/155/1 313/156/1
f 385/148/1 414/152/1 313/156/1 255/149/1
f 301/153/1 360/157/1 415/158/1 386/154/1
f 360/157/1 302/159/1 387/160/1 415/158/1
f 415/158/1 387/160/1 252/161/1 309/162/1
f 386/154/1 415/158/1 309/162/1 251/155/1
f 302/159/1 361/163/1 416/164/1 387/160/1
f 361/163/1 303/165/1 388/166/1 416/164/1
f 416/164/1 388/166/1 253/167/1 310/168/1
f 387/160/1 416/164/1 310/168/1 252/161/1
f 303/165/1 362/169/1 417/170/1 388/166/1
f 362/169/1 304/1/1 389/4/1 417/170/1
f 417/170/1 389/4/1 254/9/1 311/171/1
f 388/166/1 417/170/1 311/171/1 253/167/1
