# Blender v3.0.0 OBJ File: 'River village.blend'
# www.blender.org
mtllib Wonder island river.mtl
o Plane.002_Plane.001
v -4.754942 0.005920 -4.234078
v 2.932901 0.003220 4.213120
v -4.058636 -0.004636 -4.964479
v 3.460649 -0.005517 3.363952
v -4.817744 0.005469 -3.569620
v -4.012084 0.001399 -2.634181
v -3.296526 0.001146 -2.477194
v -2.724334 0.004314 -2.263321
v -2.248348 0.009634 -1.941326
v -1.541186 0.000000 -1.127928
v -0.960446 0.000000 -0.215771
v -0.701757 0.000000 0.726678
v -0.357020 0.000000 1.906652
v 0.176001 0.000000 2.825493
v 0.723024 0.000000 3.110128
v 1.213021 -0.000682 3.457103
v 1.569948 -0.004007 3.920655
v 2.170352 -0.004360 4.306619
v 3.247382 -0.007813 2.689950
v 2.573949 -0.002243 2.292840
v 1.972468 -0.000166 2.090714
v 1.637875 0.000000 1.688966
v 1.179235 0.000000 1.298557
v 0.627399 0.000000 0.715196
v 0.274727 -0.001068 -0.038546
v 0.333603 -0.004270 -0.742369
v -0.371431 0.000000 -2.031495
v -1.568719 -0.001129 -3.204517
v -2.395098 -0.000282 -3.610061
v -2.949852 0.000000 -4.051304
v -3.395412 0.000163 -4.418279
v -3.665405 -0.002091 -4.864989
v -1.198231 0.000000 -0.698388
v 0.124845 -0.001068 -1.435719
v -1.855636 0.002282 -1.518954
v -0.954157 -0.000282 -2.576319
v -4.543285 -0.002700 -3.044313
v -3.535126 0.000455 -4.644952
v -4.431492 0.000261 -4.658317
v 2.550164 0.000203 4.356351
v 3.264513 -0.000061 3.828320
v -3.808212 -0.004585 -4.988946
v -4.862231 0.007702 -3.870744
v -4.311921 -0.001323 -2.810730
v -3.654699 0.001754 -2.540540
v -2.989989 0.001826 -2.385767
v -2.477871 0.008020 -2.117310
v -1.698255 0.000285 -1.323404
v -1.070937 0.000000 -0.491058
v -0.838156 0.000000 0.199127
v -0.549679 0.000000 1.314436
v -0.105167 0.000000 2.440166
v 0.452575 0.000000 3.009417
v 0.986563 -0.000085 3.257544
v 1.385547 -0.002121 3.684463
v 1.833959 -0.005457 4.142752
v 3.442166 -0.008213 2.984156
v 2.933664 -0.005182 2.456542
v 2.238338 -0.000675 2.197189
v 1.794591 -0.000021 1.904785
v 1.432182 0.000000 1.499176
v 0.900856 0.000000 1.038379
v 0.397543 -0.000133 0.343151
v 0.291691 -0.003069 -0.396090
v -0.100430 -0.000133 -1.748719
v -1.237289 -0.000811 -2.901925
v -1.986470 -0.000811 -3.423183
v -2.700806 -0.000035 -3.825708
v -3.197555 0.000020 -4.253260
v -3.583099 -0.000278 -4.745337
v -4.241575 0.001689 -4.217304
v -3.703748 0.000781 -3.526230
v -3.123189 0.000573 -3.264248
v -2.559716 0.002016 -2.936691
v -1.908533 0.004253 -2.572922
v -0.956308 0.000000 -1.579711
v -0.313422 -0.002135 -0.479070
v -0.213515 -0.000534 0.344066
v 0.135189 0.000000 1.310924
v 0.677618 0.000000 2.062025
v 1.180449 0.000000 2.399547
v 1.592744 -0.000424 2.773908
v 2.071948 -0.003125 3.106748
v 2.708867 -0.006086 3.498284
v -1.364661 0.000000 -0.913259
v 0.278672 -0.003069 -1.093987
v -0.536693 -0.000534 -1.067053
v -2.039003 0.006623 -1.732875
v -0.663457 -0.000035 -2.294212
v -1.404896 0.001000 -2.047637
v -4.708586 0.000623 -3.298062
v -3.492887 0.000443 -4.543183
v -4.039205 -0.001123 -3.844632
v 3.003852 -0.003882 3.674768
v -4.338024 0.001515 -4.436544
v -3.902404 -0.000440 -3.676956
v -3.426127 0.000887 -3.396900
v -2.845397 0.000895 -3.105738
v -2.232171 0.003605 -2.770246
v -1.180856 0.000125 -1.808808
v -0.396133 -0.001535 -0.792523
v -0.273232 -0.001535 -0.098481
v -0.076068 -0.000067 0.828793
v 0.397844 0.000000 1.739272
v 0.942378 0.000000 2.254297
v 1.390577 -0.000053 2.581164
v 1.811942 -0.001398 2.940826
v 2.383811 -0.005320 3.299647
v -0.732545 -0.000067 -1.330989
v -1.638146 0.002906 -2.317400
v -4.145842 0.000172 -4.021699
vt 0.936838 0.000000
vt 0.968419 0.000000
vt 0.968371 0.500000
vt 0.936352 0.500000
vt 1.000000 0.000000
vt 1.000000 0.500000
vt 1.000000 1.000000
vt 0.968419 1.000000
vt 0.936839 1.000000
vt 0.000000 0.000000
vt 0.035086 0.000000
vt 0.034574 0.500000
vt 0.000000 0.500000
vt 0.070172 0.000000
vt 0.065055 0.500000
vt 0.070172 1.000000
vt 0.035086 1.000000
vt 0.000000 1.000000
vt 0.103505 0.000000
vt 0.120172 0.000000
vt 0.120635 0.500000
vt 0.103505 0.500000
vt 0.136839 0.000000
vt 0.141468 0.500000
vt 0.136838 1.000000
vt 0.120172 1.000000
vt 0.103505 1.000000
vt 0.170172 0.000000
vt 0.170635 0.500000
vt 0.203505 0.000000
vt 0.203505 0.500000
vt 0.203505 1.000000
vt 0.170172 1.000000
vt 0.236839 0.000000
vt 0.236839 0.500000
vt 0.270172 0.000000
vt 0.270172 0.500000
vt 0.270172 1.000000
vt 0.236839 1.000000
vt 0.303505 0.000000
vt 0.303042 0.500000
vt 0.336839 0.000000
vt 0.332209 0.500000
vt 0.336839 1.000000
vt 0.303505 1.000000
vt 0.370172 0.000000
vt 0.386839 0.000000
vt 0.386839 0.500000
vt 0.370172 0.500000
vt 0.403505 0.000000
vt 0.403505 0.500000
vt 0.403505 1.000000
vt 0.386839 1.000000
vt 0.370172 1.000000
vt 0.436839 0.000000
vt 0.453505 0.000000
vt 0.453968 0.500000
vt 0.436839 0.500000
vt 0.470172 0.000000
vt 0.474802 0.500000
vt 0.470172 1.000000
vt 0.453505 1.000000
vt 0.436839 1.000000
vt 0.503505 0.000000
vt 0.503968 0.500000
vt 0.536838 0.000000
vt 0.536839 0.500000
vt 0.536839 1.000000
vt 0.503505 1.000000
vt 0.570172 0.000000
vt 0.570172 0.500000
vt 0.603505 0.000000
vt 0.603505 0.500000
vt 0.603505 1.000000
vt 0.570172 1.000000
vt 0.636838 0.000000
vt 0.636839 0.500000
vt 0.670172 0.000000
vt 0.670172 0.500000
vt 0.670172 1.000000
vt 0.636839 1.000000
vt 0.703505 0.000000
vt 0.703505 0.500000
vt 0.736838 0.000000
vt 0.736839 0.500000
vt 0.736839 1.000000
vt 0.703505 1.000000
vt 0.770172 0.000000
vt 0.770172 0.500000
vt 0.803505 0.000000
vt 0.803505 0.500000
vt 0.803505 1.000000
vt 0.770172 1.000000
vt 0.836838 0.000000
vt 0.836838 0.500000
vt 0.870172 0.000000
vt 0.870172 0.500000
vt 0.870172 1.000000
vt 0.836839 1.000000
vt 0.903505 0.000000
vt 0.903457 0.500000
vt 0.903505 1.000000
vt 0.420172 0.000000
vt 0.420172 0.500000
vt 0.420172 1.000000
vt 0.353505 0.000000
vt 0.353042 0.500000
vt 0.353505 1.000000
vt 0.086839 0.000000
vt 0.086327 0.500000
vt 0.086838 1.000000
vn -0.0071 0.9999 -0.0086
vn -0.0104 0.9998 -0.0146
vn -0.0035 0.9999 -0.0104
vn 0.0001 1.0000 -0.0040
vn 0.0081 1.0000 -0.0050
vn 0.0103 0.9999 0.0012
vn 0.0003 1.0000 -0.0080
vn 0.0022 0.9999 -0.0105
vn -0.0045 1.0000 -0.0010
vn -0.0063 1.0000 -0.0024
vn -0.0024 1.0000 -0.0008
vn -0.0033 1.0000 -0.0003
vn -0.0004 1.0000 -0.0010
vn 0.0015 1.0000 -0.0005
vn 0.0010 1.0000 -0.0006
vn 0.0005 1.0000 -0.0007
vn -0.0012 1.0000 -0.0012
vn -0.0048 1.0000 -0.0034
vn 0.0000 1.0000 -0.0023
vn 0.0002 1.0000 -0.0010
vn -0.0055 1.0000 -0.0068
vn 0.0008 1.0000 -0.0073
vn 0.0031 1.0000 -0.0062
vn 0.0009 1.0000 -0.0048
vn 0.0044 1.0000 0.0028
vn 0.0005 1.0000 0.0005
vn 0.0002 1.0000 0.0000
vn 0.0014 1.0000 -0.0001
vn 0.0020 1.0000 0.0010
vn 0.0028 1.0000 0.0001
vn 0.0036 1.0000 0.0020
vn 0.0032 1.0000 0.0033
vn 0.0024 1.0000 -0.0013
vn 0.0011 1.0000 -0.0013
vn -0.0004 1.0000 -0.0037
vn 0.0019 1.0000 -0.0025
vn 0.0002 1.0000 -0.0005
vn -0.0000 1.0000 -0.0001
vn -0.0001 1.0000 -0.0002
vn -0.0007 1.0000 -0.0014
vn 0.0000 1.0000 0.0000
vn 0.0002 1.0000 0.0001
vn 0.0014 1.0000 0.0010
vn 0.0007 1.0000 0.0006
vn 0.0001 1.0000 0.0001
vn 0.0035 1.0000 0.0027
vn 0.0047 1.0000 0.0038
vn 0.0040 1.0000 0.0034
vn 0.0020 1.0000 0.0018
vn 0.0040 1.0000 0.0032
vn 0.0000 1.0000 -0.0009
vn 0.0041 1.0000 0.0018
vn 0.0055 1.0000 0.0041
vn 0.0007 1.0000 0.0004
vn 0.0013 1.0000 0.0014
vn 0.0002 1.0000 0.0002
vn 0.0103 0.9999 -0.0012
vn 0.0107 0.9999 0.0037
vn 0.0042 1.0000 -0.0013
vn 0.0055 1.0000 -0.0041
vn 0.0132 0.9999 0.0078
vn 0.0075 1.0000 0.0060
vn 0.0010 1.0000 0.0015
vn 0.0015 1.0000 -0.0018
usemtl None
s off
f 18/1/1 40/2/1 94/3/1 84/4/1
f 40/2/2 2/5/2 41/6/2 94/3/2
f 94/3/3 41/6/3 4/7/3 57/8/3
f 84/4/4 94/3/4 57/8/4 19/9/4
f 1/10/5 43/11/5 95/12/5 39/13/5
f 43/11/6 5/14/6 71/15/6 95/12/6
f 95/12/7 71/15/7 32/16/7 42/17/7
f 39/13/8 95/12/8 42/17/8 3/18/8
f 37/19/9 44/20/9 96/21/9 93/22/9
f 44/20/10 6/23/10 72/24/10 96/21/10
f 96/21/11 72/24/11 31/25/11 92/26/11
f 93/22/12 96/21/12 92/26/12 38/27/12
f 6/23/13 45/28/13 97/29/13 72/24/13
f 45/28/14 7/30/14 73/31/14 97/29/14
f 97/29/15 73/31/15 30/32/15 69/33/15
f 72/24/16 97/29/16 69/33/16 31/25/16
f 7/30/17 46/34/17 98/35/17 73/31/17
f 46/34/18 8/36/18 74/37/18 98/35/18
f 98/35/19 74/37/19 29/38/19 68/39/19
f 73/31/20 98/35/20 68/39/20 30/32/20
f 8/36/21 47/40/21 99/41/21 74/37/21
f 47/40/22 9/42/22 75/43/22 99/41/22
f 99/41/23 75/43/23 28/44/23 67/45/23
f 74/37/24 99/41/24 67/45/24 29/38/24
f 35/46/25 48/47/25 100/48/25 90/49/25
f 48/47/26 10/50/26 76/51/26 100/48/26
f 100/48/27 76/51/27 27/52/27 89/53/27
f 90/49/28 100/48/28 89/53/28 36/54/28
f 33/55/29 49/56/29 101/57/29 87/58/29
f 49/56/30 11/59/30 77/60/30 101/57/30
f 101/57/31 77/60/31 26/61/31 86/62/31
f 87/58/32 101/57/32 86/62/32 34/63/32
f 11/59/33 50/64/33 102/65/33 77/60/33
f 50/64/34 12/66/34 78/67/34 102/65/34
f 102/65/35 78/67/35 25/68/35 64/69/35
f 77/60/36 102/65/36 64/69/36 26/61/36
f 12/66/37 51/70/37 103/71/37 78/67/37
f 51/70/38 13/72/38 79/73/38 103/71/38
f 103/71/39 79/73/39 24/74/39 63/75/39
f 78/67/40 103/71/40 63/75/40 25/68/40
f 13/72/41 52/76/41 104/77/41 79/73/41
f 52/76/41 14/78/41 80/79/41 104/77/41
f 104/77/41 80/79/41 23/80/41 62/81/41
f 79/73/41 104/77/41 62/81/41 24/74/41
f 14/78/41 53/82/41 105/83/41 80/79/41
f 53/82/41 15/84/41 81/85/41 105/83/41
f 105/83/41 81/85/41 22/86/41 61/87/41
f 80/79/41 105/83/41 61/87/41 23/80/41
f 15/84/42 54/88/42 106/89/42 81/85/42
f 54/88/43 16/90/43 82/91/43 106/89/43
f 106/89/44 82/91/44 21/92/44 60/93/44
f 81/85/45 106/89/45 60/93/45 22/86/45
f 16/90/46 55/94/46 107/95/46 82/91/46
f 55/94/47 17/96/47 83/97/47 107/95/47
f 107/95/48 83/97/48 20/98/48 59/99/48
f 82/91/49 107/95/49 59/99/49 21/92/49
f 17/96/50 56/100/50 108/101/50 83/97/50
f 56/100/51 18/1/51 84/4/51 108/101/51
f 108/101/52 84/4/52 19/9/52 58/102/52
f 83/97/53 108/101/53 58/102/53 20/98/53
f 10/50/45 85/103/45 109/104/45 76/51/45
f 85/103/54 33/55/54 87/58/54 109/104/54
f 109/104/55 87/58/55 34/63/55 65/105/55
f 76/51/56 109/104/56 65/105/56 27/52/56
f 9/42/57 88/106/57 110/107/57 75/43/57
f 88/106/58 35/46/58 90/49/58 110/107/58
f 110/107/59 90/49/59 36/54/59 66/108/59
f 75/43/60 110/107/60 66/108/60 28/44/60
f 5/14/61 91/109/61 111/110/61 71/15/61
f 91/109/62 37/19/62 93/22/62 111/110/62
f 111/110/63 93/22/63 38/27/63 70/111/63
f 71/15/64 111/110/64 70/111/64 32/16/64
