# Blender v3.0.0 OBJ File: 'River village.blend'
# www.blender.org
mtllib Wonder island river2.mtl
o Plane.003
v -0.301749 -0.058455 1.041204
v -2.655297 -0.058455 11.124304
v 0.361303 -0.058455 2.329166
v -1.440576 -0.058455 10.877586
v -1.249221 -0.058455 2.019361
v -1.949373 -0.058455 3.024631
v -2.394736 -0.058455 3.923702
v -2.715350 -0.058455 4.827311
v -2.938433 -0.058455 5.762673
v -3.057179 -0.058455 6.747936
v -3.089281 -0.058455 7.762231
v -3.066040 -0.058455 8.764278
v -2.979164 -0.058455 9.912136
v -1.169097 -0.058455 10.334311
v -1.254575 -0.058455 9.316780
v -1.290566 -0.058455 8.262637
v -1.255742 -0.058455 7.243352
v -1.141532 -0.058455 6.264894
v -0.913913 -0.058455 5.322727
v -0.606909 -0.058455 4.421387
v -0.254540 -0.058455 3.585824
v 0.100179 -0.058455 3.014494
v 0.125126 -0.058455 1.554051
v -2.920005 -0.058455 10.624348
v -2.046859 -0.058455 11.127510
v 0.302054 -0.058455 2.777300
v -0.786636 -0.058455 1.341587
v -1.637854 -0.058455 2.577981
v -2.195019 -0.058455 3.469914
v -2.566951 -0.058455 4.374656
v -2.839650 -0.058455 5.289038
v -3.010564 -0.058455 6.249351
v -3.081055 -0.058455 7.255254
v -3.086846 -0.058455 8.262234
v -3.022649 -0.058455 9.292033
v -1.186857 -0.058455 10.636361
v -1.210268 -0.058455 9.868282
v -1.282115 -0.058455 8.780040
v -1.281660 -0.058455 7.749592
v -1.211396 -0.058455 6.749020
v -1.040481 -0.058455 5.788707
v -0.768917 -0.058455 4.868654
v -0.430724 -0.058455 3.982341
v -0.086568 -0.058455 3.264864
v -0.574521 -0.058455 2.516928
v -1.101956 -0.058455 3.305227
v -1.500822 -0.058455 4.172544
v -1.814632 -0.058455 5.075019
v -2.039983 -0.058455 6.013783
v -2.156461 -0.058455 6.995644
v -2.189923 -0.058455 8.012434
v -2.160307 -0.058455 9.040529
v -2.074131 -0.058455 10.123222
v -2.053309 -0.058455 10.644717
v -0.231471 -0.058455 2.044563
v -0.862211 -0.058455 2.921423
v -1.312872 -0.058455 3.726128
v -1.667934 -0.058455 4.621655
v -1.940066 -0.058455 5.538872
v -2.110980 -0.058455 6.499185
v -2.181357 -0.058455 7.502423
v -2.184481 -0.058455 8.521136
v -2.116458 -0.058455 9.580157
vt 0.900000 0.000000
vt 0.950000 0.000000
vt 0.950000 0.500000
vt 0.900000 0.500000
vt 1.000000 0.000000
vt 1.000000 0.500000
vt 1.000000 1.000000
vt 0.950000 1.000000
vt 0.900000 1.000000
vt 0.000000 0.000000
vt 0.050000 0.000000
vt 0.050000 0.500000
vt 0.000000 0.500000
vt 0.100000 0.000000
vt 0.100000 0.500000
vt 0.100000 1.000000
vt 0.050000 1.000000
vt 0.000000 1.000000
vt 0.150000 0.000000
vt 0.150000 0.500000
vt 0.200000 0.000000
vt 0.200000 0.500000
vt 0.200000 1.000000
vt 0.150000 1.000000
vt 0.250000 0.000000
vt 0.250000 0.500000
vt 0.300000 0.000000
vt 0.300000 0.500000
vt 0.300000 1.000000
vt 0.250000 1.000000
vt 0.350000 0.000000
vt 0.350000 0.500000
vt 0.400000 0.000000
vt 0.400000 0.500000
vt 0.400000 1.000000
vt 0.350000 1.000000
vt 0.450000 0.000000
vt 0.450000 0.500000
vt 0.500000 0.000000
vt 0.500000 0.500000
vt 0.500000 1.000000
vt 0.450000 1.000000
vt 0.550000 0.000000
vt 0.550000 0.500000
vt 0.600000 0.000000
vt 0.600000 0.500000
vt 0.600000 1.000000
vt 0.550000 1.000000
vt 0.650000 0.000000
vt 0.650000 0.500000
vt 0.700000 0.000000
vt 0.700000 0.500000
vt 0.700000 1.000000
vt 0.650000 1.000000
vt 0.750000 0.000000
vt 0.750000 0.500000
vt 0.800000 0.000000
vt 0.800000 0.500000
vt 0.800000 1.000000
vt 0.750000 1.000000
vt 0.850000 0.000000
vt 0.850000 0.500000
vt 0.850000 1.000000
vn 0.0000 1.0000 -0.0000
usemtl None
s off
f 13/1/1 24/2/1 54/3/1 53/4/1
f 24/2/1 2/5/1 25/6/1 54/3/1
f 54/3/1 25/6/1 4/7/1 36/8/1
f 53/4/1 54/3/1 36/8/1 14/9/1
f 1/10/1 27/11/1 55/12/1 23/13/1
f 27/11/1 5/14/1 45/15/1 55/12/1
f 55/12/1 45/15/1 22/16/1 26/17/1
f 23/13/1 55/12/1 26/17/1 3/18/1
f 5/14/1 28/19/1 56/20/1 45/15/1
f 28/19/1 6/21/1 46/22/1 56/20/1
f 56/20/1 46/22/1 21/23/1 44/24/1
f 45/15/1 56/20/1 44/24/1 22/16/1
f 6/21/1 29/25/1 57/26/1 46/22/1
f 29/25/1 7/27/1 47/28/1 57/26/1
f 57/26/1 47/28/1 20/29/1 43/30/1
f 46/22/1 57/26/1 43/30/1 21/23/1
f 7/27/1 30/31/1 58/32/1 47/28/1
f 30/31/1 8/33/1 48/34/1 58/32/1
f 58/32/1 48/34/1 19/35/1 42/36/1
f 47/28/1 58/32/1 42/36/1 20/29/1
f 8/33/1 31/37/1 59/38/1 48/34/1
f 31/37/1 9/39/1 49/40/1 59/38/1
f 59/38/1 49/40/1 18/41/1 41/42/1
f 48/34/1 59/38/1 41/42/1 19/35/1
f 9/39/1 32/43/1 60/44/1 49/40/1
f 32/43/1 10/45/1 50/46/1 60/44/1
f 60/44/1 50/46/1 17/47/1 40/48/1
f 49/40/1 60/44/1 40/48/1 18/41/1
f 10/45/1 33/49/1 61/50/1 50/46/1
f 33/49/1 11/51/1 51/52/1 61/50/1
f 61/50/1 51/52/1 16/53/1 39/54/1
f 50/46/1 61/50/1 39/54/1 17/47/1
f 11/51/1 34/55/1 62/56/1 51/52/1
f 34/55/1 12/57/1 52/58/1 62/56/1
f 62/56/1 52/58/1 15/59/1 38/60/1
f 51/52/1 62/56/1 38/60/1 16/53/1
f 12/57/1 35/61/1 63/62/1 52/58/1
f 35/61/1 13/1/1 53/4/1 63/62/1
f 63/62/1 53/4/1 14/9/1 37/63/1
f 52/58/1 63/62/1 37/63/1 15/59/1
